<svg height="512pt" viewBox="0 0 512 512" width="512pt" xmlns="http://www.w3.org/2000/svg"><path d="m512 121v331h-512v-331l30-30h452zm0 0" fill="#efeff4"/><path d="m512 121v331h-256v-361h226zm0 0" fill="#dadae5"/><path d="m0 0h512v121h-512zm0 0" fill="#474f54"/><path d="m256 0h256v121h-256zm0 0" fill="#32393f"/><g fill="#9bfcff"><path d="m61 46h30v30h-30zm0 0"/><path d="m121 46h30v30h-30zm0 0"/><path d="m181 46h30v30h-30zm0 0"/></g><path d="m361 336.097656v175.902344h-90v-30h-30v30h-90v-175.902344l91.199219-75h24.902343zm0 0" fill="#ff637b"/><path d="m91 181h330v30h-330zm0 0" fill="#dadae5"/><path d="m256 181h165v30h-165zm0 0" fill="#c9c9d3"/><path d="m361 336.097656v175.902344h-90v-30h-15v-220.902344h11.101562zm0 0" fill="#e63950"/><path d="m241 361h30v30h-30zm0 0" fill="#efeff4"/><path d="m256 361h15v30h-15zm0 0" fill="#dadae5"/><path d="m400.902344 364.898438-19.804688 22.203124-125.097656-111.003906-125.097656 111.003906-19.804688-22.203124 144.902344-128.996094zm0 0" fill="#676e74"/><path d="m256 235.902344 144.902344 128.996094-19.804688 22.203124-125.097656-111.003906zm0 0" fill="#474f54"/></svg>